<?xml version="1.0" encoding="UTF-8"?>
<svg id="Layer_1" xmlns="http://www.w3.org/2000/svg" version="1.1" viewBox="0 0 2000 2000">
  <!-- Generator: Adobe Illustrator 30.3.0, SVG Export Plug-In . SVG Version: 2.1.3 Build 182)  -->
  <defs>
    <style>
      .st0 {
        fill: #2c1452;
      }
    </style>
  </defs>
  <path class="st0" d="M1407.96,1207.84l-156.49,154.92c-39.93,39.53-94.56,63.65-151.4,63.79l-238.26.55c-33.74.08-60.89-14.19-83.95-37.19l-149.14-148.83c-31.82-31.75-43.8-74.25-43.78-119.35l.31-548.83,218.55,213c32.7,31.87,46.31,75.53,49.15,120.4l-1.48,470.22,151.26-151.49c38.92-38.98,87.95-65.21,144.94-65.26l241.03-.21c10.89,0,21.65,10.04,24.4,17.32,3.58,9.46,2.52,23.39-5.14,30.96Z"/>
  <circle class="st0" cx="1236.46" cy="943.44" r="162.25"/>
</svg>