<?xml version="1.0" encoding="utf-8"?>
<!-- Generator: Adobe Illustrator 26.0.1, SVG Export Plug-In . SVG Version: 6.00 Build 0)  -->
<svg version="1.1" id="Layer_1" xmlns="http://www.w3.org/2000/svg" xmlns:xlink="http://www.w3.org/1999/xlink" x="0px" y="0px"
	 viewBox="0 0 500 173.3" style="enable-background:new 0 0 500 173.3;" xml:space="preserve">
<style type="text/css">
	.st0{fill:#2C1452;}
</style>
<g>
	<path class="st0" d="M50.3,52.8c6,5.9,11.9,11.5,17.7,17.3c2.7,2.7,3.4,6.3,3.4,10c0,11.4-0.1,22.8-0.1,34.2c0,0.6,0,1.2,0,2.2
		c0.7-0.6,1.1-1,1.5-1.4c3.4-3.4,6.8-6.8,10.2-10.2c3.7-3.8,8-5.8,13.5-5.6c5.6,0.2,11.2,0,16.9,0c1.2,0,2.3,0.2,2.8,1.4
		c0.5,1.2-0.1,2.1-0.9,2.9c-4,3.9-7.9,7.9-11.9,11.7c-3.4,3.3-7.5,5.1-12.4,5.1c-6.2-0.1-12.4-0.1-18.7,0c-2.4,0-4.5-0.7-6.2-2.4
		c-4.3-4.2-8.6-8.5-12.9-12.8c-2-2.1-3-4.7-3-7.5c-0.1-14.8,0-29.5,0-44.3C50.2,53.3,50.2,53.2,50.3,52.8z"/>
	<path class="st0" d="M410.4,101.7c-4.3,5.5-10.7,5.3-15,3.7c-5.4-2-8.9-7.3-9-13.3c-0.1-7.7,5.5-13.9,13.3-14.8
		c7.7-0.8,14.6,4,16.1,11.5c0,0.1,0,0.1,0,0.2c-0.1,6.3,0.4,12.7-0.4,18.9c-0.7,6.3-6,10.6-12.6,11.5c-6.6,0.9-12.8-2-15.7-7.4
		c1.5-0.8,3-1.6,4.6-2.5c1.6,2.6,3.8,4.3,6.8,4.8c2.2,0.4,4.4,0.2,6.5-0.8C409,111.5,411.1,107,410.4,101.7z M401.1,101.1
		c5.2,0,9.3-4,9.4-9.1c0.1-5.2-3.9-9.2-9.2-9.3c-5.2-0.1-9.4,3.9-9.4,9.1C391.9,97,396,101.1,401.1,101.1z"/>
	<path class="st0" d="M102,94.9c-7.1,0-12.9-5.7-12.9-12.8c0-7.2,5.8-12.9,13-12.9c7.1,0,12.9,5.8,12.8,12.9
		C114.9,89.2,109.2,95,102,94.9z"/>
	<path class="st0" d="M449.7,105.9c-1.9,0-3.6,0-5.5,0c0-2.6,0-5.1,0-7.7c0-2.7,0.1-5.4-0.2-8.1c-0.6-4.9-3.9-7.6-8.4-7.4
		c-4.5,0.3-7.8,3.7-7.9,8.5c-0.1,4.6,0,9.2,0,13.8c0,0.2,0,0.4-0.1,0.8c-1.8,0-3.5,0-5.4,0c0-0.5-0.1-1.1-0.1-1.7
		c0-12.3,0-24.7,0-37c0-1.4,0.3-2.1,1.9-1.9c1.2,0.1,2.4,0,3.7,0c0,5.2,0,10.4,0,15.2c2.4-1,4.6-2.3,7-2.7
		c8.1-1.6,14.6,3.3,15.1,11.5C450,94.6,449.7,100.2,449.7,105.9z"/>
	<path class="st0" d="M226.1,105.9c-1.7,0-3.3,0-5.1,0c0-1.5,0-2.9,0-4.3c-0.3,0.1-0.5,0.1-0.5,0.2c-3.6,4.7-8.5,5.9-13.9,4.3
		c-5.4-1.5-8.5-5.5-9.8-10.9c-1.6-7.3,2.5-14.7,9.6-17c7.4-2.5,15.5,0.8,18.5,7.7c0.7,1.5,1.1,3.3,1.2,5c0.2,4.7,0.1,9.4,0.1,14.1
		C226.2,105.2,226.1,105.5,226.1,105.9z M202.1,92.1c0,5.2,4.1,9.3,9.2,9.3c5.2,0,9.3-4.1,9.3-9.4c0-5.2-4.2-9.4-9.3-9.4
		C206.2,82.6,202.1,86.8,202.1,92.1z"/>
	<path class="st0" d="M172.6,93.4c0.4,3.8,3.1,6.9,6.5,7.9c4.2,1.2,8-0.2,11-4.2c1.3,0.7,2.7,1.4,4.2,2.2c-2.1,4-5.2,6.2-9.5,7.1
		c-8.3,1.7-15.9-3.4-17.5-11.7c-2.1-10.9,7-19.6,17.8-16.9c6.7,1.7,10.2,7.8,9.8,14.9c0,0.3-0.9,0.8-1.4,0.8c-6.3,0.1-12.7,0-19,0
		C173.9,93.4,173.3,93.4,172.6,93.4z M173,89.7c5.4,0,10.7,0,16.1,0c0.2-4.2-3.3-7.4-7.9-7.5C176.7,82.2,172.8,85.7,173,89.7z"/>
	<path class="st0" d="M338.9,106.6c-8.3,0-14.9-6.4-15-14.5c-0.1-8.2,6.5-14.8,14.8-14.8c8.4,0,15,6.4,15,14.6
		C353.6,100.2,347.2,106.6,338.9,106.6z M348,92c0-5.2-4.1-9.4-9.2-9.4c-5.1,0-9.4,4.3-9.4,9.4c0,5.1,4.3,9.4,9.5,9.3
		C344,101.3,348,97.2,348,92z"/>
	<path class="st0" d="M275.5,105.9c-1.9,0-3.6,0-5.5,0c0-0.6,0-1.2,0-1.8c0-4.1,0-8.2,0-12.3c-0.1-4.1-2.4-7.6-5.7-8.6
		c-5.5-1.7-10.6,1.9-10.9,7.9c-0.2,4.3-0.1,8.7-0.1,13c0,0.6,0,1.2,0,1.8c-2,0-3.7,0-5.6,0c0-3.2,0-6.2,0-9.3
		c0.1-2.8-0.1-5.6,0.4-8.2c1.4-7.6,7.8-12,15.7-10.8c6.9,1,11.4,5.8,11.7,12.8C275.7,95.4,275.5,100.5,275.5,105.9z"/>
	<path class="st0" d="M298.5,105.9c-1.9,0-3.6,0-5.5,0c0-1.2,0-2.3,0-3.4c0.1-4.6-0.3-9.2,0.4-13.8c1.2-8,7.6-12.3,15.6-11.2
		c6.8,1,10.9,5.2,11.8,12.4c0.1,0.9,0.1,1.7,0.1,2.6c0,4.4,0,8.8,0,13.4c-1.9,0-3.6,0-5.6,0c0-0.8,0-1.5,0-2.1
		c-0.1-4.3,0.1-8.7-0.2-13c-0.4-5.1-3.9-8.1-8.8-8c-3.7,0.1-6.6,2.7-7.4,6.8c-0.3,1.3-0.3,2.6-0.3,3.9
		C298.5,97.5,298.5,101.6,298.5,105.9z"/>
	<path class="st0" d="M356.4,78.1c1.9,0,3.7,0,5.5,0c0,0.7,0.1,1.3,0.1,2c0,4.1,0,8.2,0.1,12.3c0,0.8,0.2,1.6,0.4,2.4
		c1.1,4.2,4,6.6,7.8,6.4c3.9-0.2,6.8-2.8,7.5-7c0.2-1.4,0.3-2.8,0.3-4.2c0-3.9,0-7.9,0-11.9c1.9,0,3.6,0,5.3,0
		c0.1,0.1,0.2,0.2,0.2,0.2c-0.1,5.8,0.3,11.7-0.4,17.5c-0.8,6.9-6.4,10.9-13.6,10.8c-6.9-0.2-11.9-4.7-12.9-11.5
		c-0.1-0.9-0.3-1.8-0.3-2.7C356.4,87.7,356.4,83,356.4,78.1z"/>
	<path class="st0" d="M147.9,100.6c6.5,0,12.7,0,19,0c0,1.8,0,3.4,0,5.2c-0.3,0.1-0.7,0.2-1.1,0.2c-6.1,0-12.2,0-18.3,0
		c-3.7,0-5.3-1.6-5.3-5.4c0-10.5,0-21.1,0-31.6c0-0.3,0.1-0.6,0.1-1c1.9,0,3.7,0,5.6,0C147.9,78.8,147.9,89.6,147.9,100.6z"/>
	<path class="st0" d="M247.2,83.8c-1.2-0.3-2.2-0.7-3.2-0.9c-4.3-0.7-7.3,1.9-7.4,6.6c-0.1,4.8,0,9.6,0,14.4c0,0.6,0,1.2,0,1.9
		c-1.9,0-3.6,0-5.4,0c-0.1-0.3-0.2-0.6-0.2-0.9c0-5.6-0.1-11.1,0-16.7c0.1-5.3,3.2-9.5,7.9-10.3c2.3-0.4,4.7,0,7,0.2
		c0.9,0.1,1.2,0.6,1.2,1.6C247.1,81,247.2,82.3,247.2,83.8z"/>
	<path class="st0" d="M278.8,106c1.2-4.2,2.3-8.2,3.5-12.1c1.4-4.8,2.8-9.6,4.1-14.5c0.3-1,0.7-1.4,1.8-1.3c1.3,0.1,2.7,0,4.2,0
		c-1,3.6-1.9,6.9-2.9,10.3c-1.5,5.3-3.1,10.7-4.5,16c-0.3,1.3-0.9,1.8-2.2,1.6C281.4,105.9,280.2,106,278.8,106z"/>
	<path class="st0" d="M293.7,72.5c0,2.1-1.5,3.7-3.6,3.7c-2,0-3.6-1.6-3.6-3.6c-0.1-2.1,1.5-3.8,3.5-3.8
		C292.1,68.8,293.6,70.4,293.7,72.5z"/>
</g>
</svg>
